<svg width="34" height="38" viewBox="0 0 34 38" fill="none" xmlns="http://www.w3.org/2000/svg">
<path d="M33.1249 18.9375L27.1061 15.1875C26.9556 15.0959 26.7824 15.0482 26.6061 15.05H17.9374V12.4812H32.6249C32.8066 12.4814 32.9845 12.4287 33.1368 12.3295C33.2892 12.2304 33.4094 12.0891 33.4829 11.9229C33.5564 11.7567 33.58 11.5727 33.5509 11.3933C33.5217 11.2139 33.441 11.0469 33.3186 10.9125L30.4749 7.7875L33.3186 4.6625C33.4516 4.52954 33.5416 4.35964 33.5768 4.1749C33.6119 3.99015 33.5908 3.79909 33.5159 3.62654C33.4411 3.454 33.3161 3.30794 33.1572 3.20735C32.9983 3.10676 32.8128 3.05629 32.6249 3.0625H17.9374V1.5C17.9374 1.25136 17.8386 1.0129 17.6628 0.837087C17.487 0.661272 17.2485 0.5625 16.9999 0.5625C16.7512 0.5625 16.5128 0.661272 16.337 0.837087C16.1612 1.0129 16.0624 1.25136 16.0624 1.5V3.0625H7.39363C7.21684 3.06296 7.04368 3.11274 6.89363 3.20625L0.874883 6.95625C0.740647 7.04142 0.630103 7.15913 0.55351 7.29844C0.476916 7.43775 0.436756 7.59415 0.436756 7.75313C0.436756 7.9121 0.476916 8.0685 0.55351 8.20781C0.630103 8.34712 0.740647 8.46483 0.874883 8.55L6.89363 12.3C7.04368 12.3935 7.21684 12.4433 7.39363 12.4438H16.0624V14.9875H1.37488C1.19433 14.9885 1.0179 15.0415 0.866792 15.1404C0.715682 15.2392 0.596321 15.3795 0.523053 15.5445C0.449785 15.7096 0.425727 15.8922 0.453769 16.0706C0.481812 16.249 0.560762 16.4154 0.681133 16.55L3.52488 19.675L0.681133 22.8C0.53369 22.9301 0.430905 23.1033 0.387324 23.2951C0.343743 23.4869 0.361572 23.6875 0.438289 23.8686C0.515007 24.0497 0.646726 24.202 0.814809 24.3041C0.982892 24.4062 1.17883 24.4529 1.37488 24.4375H16.0624V36.5C16.0624 36.7486 16.1612 36.9871 16.337 37.1629C16.5128 37.3387 16.7512 37.4375 16.9999 37.4375C17.2485 37.4375 17.487 37.3387 17.6628 37.1629C17.8386 36.9871 17.9374 36.7486 17.9374 36.5V24.4375H26.6061C26.7824 24.4393 26.9556 24.3916 27.1061 24.3L33.1249 20.55C33.2633 20.4658 33.3777 20.3474 33.457 20.2062C33.5364 20.065 33.5781 19.9057 33.5781 19.7437C33.5781 19.5818 33.5364 19.4225 33.457 19.2813C33.3777 19.1401 33.2633 19.0217 33.1249 18.9375ZM3.13738 7.75L7.66238 4.9375H30.5124C27.5186 8.31875 27.5311 7.2375 30.5124 10.6062H7.66238L3.13738 7.75ZM26.3374 22.5625H3.48738C6.48113 19.1875 6.46863 20.2687 3.48738 16.9H26.3374L30.8624 19.7312L26.3374 22.5625Z" fill="white"/>
</svg>
