<svg width="40" height="35" viewBox="0 0 40 35" fill="none" xmlns="http://www.w3.org/2000/svg">
<path d="M19.9843 -8.51494e-05C19.8278 0.00199434 19.6739 0.0407958 19.5351 0.113196L0.535095 10.1132C0.373003 10.1977 0.237187 10.3251 0.14241 10.4814C0.0476326 10.6378 -0.00247937 10.8171 -0.00247937 10.9999C-0.00247937 11.1827 0.0476326 11.3621 0.14241 11.5184C0.237187 11.6747 0.373003 11.8021 0.535095 11.8866L19.5351 21.8866C19.6785 21.9619 19.838 22.0012 19.9999 22.0012C20.1619 22.0012 20.3214 21.9619 20.4648 21.8866L39.4648 11.8866C39.6269 11.8021 39.7627 11.6747 39.8575 11.5184C39.9523 11.3621 40.0024 11.1827 40.0024 10.9999C40.0024 10.8171 39.9523 10.6378 39.8575 10.4814C39.7627 10.3251 39.6269 10.1977 39.4648 10.1132L20.4648 0.113196C20.3166 0.0358819 20.1514 -0.00306491 19.9843 -8.51494e-05ZM19.9999 2.13273L36.8515 10.9999L19.9999 19.871L3.14838 10.9999L19.9999 2.13273ZM0.984314 15.9921C0.758885 15.9917 0.539931 16.0675 0.362969 16.2071C0.186006 16.3468 0.0614147 16.5421 0.0094044 16.7615C-0.0426059 16.9808 -0.0189843 17.2113 0.0764376 17.4155C0.171859 17.6198 0.333484 17.7858 0.535095 17.8866L19.5351 27.8866C19.6785 27.9619 19.838 28.0012 19.9999 28.0012C20.1619 28.0012 20.3214 27.9619 20.4648 27.8866L39.4648 17.8866C39.5812 17.8256 39.6845 17.7422 39.7687 17.6412C39.853 17.5403 39.9165 17.4237 39.9556 17.2982C39.9948 17.1727 40.0089 17.0407 39.9971 16.9098C39.9852 16.7788 39.9477 16.6515 39.8867 16.5351C39.8256 16.4186 39.7422 16.3153 39.6413 16.2311C39.5403 16.1469 39.4238 16.0834 39.2983 16.0442C39.1728 16.005 39.0408 15.991 38.9098 16.0028C38.7789 16.0146 38.6515 16.0521 38.5351 16.1132L19.9999 25.871L1.46478 16.1132C1.31732 16.0332 1.15209 15.9915 0.984314 15.9921ZM0.984314 21.9921C0.758885 21.9917 0.539932 22.0675 0.362969 22.2071C0.186007 22.3468 0.0614155 22.5421 0.00940521 22.7615C-0.042605 22.9808 -0.0189835 23.2113 0.0764382 23.4155C0.17186 23.6198 0.333484 23.7858 0.535095 23.8866L19.5351 33.8866C19.6785 33.9619 19.838 34.0012 19.9999 34.0012C20.1619 34.0012 20.3214 33.9619 20.4648 33.8866L39.4648 23.8866C39.5812 23.8256 39.6845 23.7422 39.7687 23.6412C39.853 23.5403 39.9165 23.4237 39.9556 23.2982C39.9948 23.1727 40.0089 23.0407 39.9971 22.9098C39.9852 22.7788 39.9477 22.6515 39.8867 22.5351C39.8256 22.4186 39.7422 22.3153 39.6413 22.2311C39.5403 22.1469 39.4238 22.0834 39.2983 22.0442C39.1728 22.005 39.0408 21.991 38.9098 22.0028C38.7789 22.0146 38.6515 22.0521 38.5351 22.1132L19.9999 31.871L1.46478 22.1132C1.31732 22.0332 1.15209 21.9915 0.984314 21.9921Z" fill="white"/>
</svg>
