<svg xmlns="http://www.w3.org/2000/svg" data-name="Layer 1" viewBox="0 -10 100 125" x="0px" y="0px" transform="scale(1.4)">
  <path d="M14.29,62.22H37.78V85a14.52,14.52,0,0,0,14.5,14.5H85A14.52,14.52,0,0,0,99.5,85V52.28A14.52,14.52,0,0,0,85,37.78H62.22V14.29A13.8,13.8,0,0,0,48.43.5H14.29A13.8,13.8,0,0,0,.5,14.29V48.43A13.8,13.8,0,0,0,14.29,62.22ZM94.5,52.28V85A9.51,9.51,0,0,1,85,94.5H52.28a9.51,9.51,0,0,1-9.5-9.5V52.28a9.51,9.51,0,0,1,9.5-9.5H85A9.51,9.51,0,0,1,94.5,52.28Zm-89-38A8.8,8.8,0,0,1,14.29,5.5H48.43a8.8,8.8,0,0,1,8.79,8.79V37.78H52.28a14.4,14.4,0,0,0-8.46,2.75,16,16,0,0,0-12.46-5.9,16.23,16.23,0,0,0-14.58,9.24A2.5,2.5,0,1,0,21.3,46a11.21,11.21,0,0,1,10.06-6.38,11,11,0,0,1,8.92,4.52,14.42,14.42,0,0,0-2.5,8.13v4.94H14.29A8.8,8.8,0,0,1,5.5,48.43Z" fill="white"/>
  <path d="M52.74,65.7a2.5,2.5,0,0,0,2.5-2.5,2.74,2.74,0,0,1,5.47,0,2.5,2.5,0,0,0,5,0,7.74,7.74,0,0,0-15.47,0A2.5,2.5,0,0,0,52.74,65.7Z" fill="white"/>
  <path d="M74.07,65.7a2.5,2.5,0,0,0,2.5-2.5,2.74,2.74,0,0,1,5.47,0,2.5,2.5,0,0,0,5,0,7.74,7.74,0,0,0-15.47,0A2.5,2.5,0,0,0,74.07,65.7Z" fill="white"/>
  <path d="M58.58,73.34a2.5,2.5,0,0,0-4.52,2.14,16.12,16.12,0,0,0,29.16,0,2.5,2.5,0,1,0-4.52-2.15,11.12,11.12,0,0,1-20.12,0Z" fill="white"/>
  <path d="M15.46,28.42a2.5,2.5,0,0,0,2.5-2.5,2.74,2.74,0,1,1,5.47,0,2.5,2.5,0,0,0,5,0,7.74,7.74,0,1,0-15.47,0A2.5,2.5,0,0,0,15.46,28.42Z" fill="white"/>
  <path d="M36.79,28.42a2.5,2.5,0,0,0,2.5-2.5,2.74,2.74,0,1,1,5.47,0,2.5,2.5,0,1,0,5,0,7.74,7.74,0,1,0-15.47,0A2.5,2.5,0,0,0,36.79,28.42Z" fill="white"/>
</svg>
