<svg width="32" height="38" viewBox="0 0 32 38" fill="none" xmlns="http://www.w3.org/2000/svg">
<path d="M31.6251 15.875C31.6284 14.8984 31.2691 13.9553 30.6167 13.2285C30.1712 12.7285 29.925 12.0822 29.9251 11.4125C29.9261 11.224 29.9451 11.0361 29.9818 10.8513C30.0367 10.5876 30.0658 10.3193 30.0688 10.05C30.0681 9.2127 29.8032 8.39696 29.3118 7.71902C28.8204 7.04108 28.1275 6.53553 27.332 6.27438C26.9267 6.14399 26.5583 5.91896 26.2572 5.6179C25.9562 5.31685 25.7311 4.94843 25.6007 4.54313C25.4568 4.1021 25.2359 3.69005 24.9482 3.32607C24.5751 2.85463 24.1005 2.47323 23.5599 2.21014C23.0192 1.94704 22.4263 1.80901 21.8251 1.80626C21.5539 1.80935 21.2837 1.83865 21.0182 1.89376C20.6014 1.97874 20.1706 1.9658 19.7596 1.85596C19.3487 1.74612 18.9689 1.54237 18.6501 1.26076C17.9268 0.615132 16.9926 0.255742 16.0231 0.250068C15.0536 0.244395 14.1154 0.592829 13.3846 1.22995C13.3607 1.24602 13.3379 1.26355 13.3162 1.28245C13.0022 1.56234 12.6262 1.76363 12.2191 1.86974C11.8121 1.97585 11.3856 1.98374 10.9749 1.89276C10.7117 1.83826 10.4438 1.80929 10.1751 1.80626C9.57421 1.80898 8.98167 1.94686 8.44135 2.20968C7.90102 2.47249 7.42675 2.85351 7.05368 3.32451C6.76537 3.68887 6.54404 4.10153 6.39999 4.54326C6.26929 4.94903 6.04377 5.31781 5.74212 5.61905C5.44047 5.92029 5.07138 6.1453 4.66543 6.27545C3.87049 6.5369 3.1783 7.04246 2.6874 7.72017C2.1965 8.39788 1.93191 9.21319 1.9313 10.05C1.93419 10.3186 1.96301 10.5862 2.01736 10.8493C2.05463 11.0347 2.07395 11.2233 2.07505 11.4125C2.07537 12.0806 1.83039 12.7256 1.38661 13.225C0.735809 13.9534 0.37581 14.8958 0.375245 15.8726C0.37468 16.8494 0.73359 17.7922 1.38355 18.5213C1.8291 19.0214 2.07522 19.6678 2.07505 20.3375C2.07404 20.526 2.05504 20.7139 2.0183 20.8988C1.96343 21.1624 1.93429 21.4307 1.9313 21.7C1.93203 22.5375 2.19712 23.3534 2.68877 24.0314C3.18042 24.7095 3.87355 25.215 4.66936 25.4759C4.90791 25.5576 5.13322 25.6737 5.33811 25.8206L1.70805 32.7991C1.66023 32.8908 1.63592 32.993 1.63732 33.0964C1.63872 33.1998 1.66577 33.3012 1.71605 33.3916C1.76633 33.4819 1.83826 33.5584 1.92539 33.6141C2.01252 33.6698 2.11211 33.703 2.21524 33.7107L6.69893 34.047L9.54805 37.5214C9.60671 37.5929 9.68047 37.6504 9.76403 37.69C9.84759 37.7295 9.93887 37.75 10.0313 37.75C10.0527 37.75 10.0741 37.7488 10.096 37.7466C10.1988 37.736 10.2974 37.7 10.3828 37.6418C10.4683 37.5837 10.5379 37.5052 10.5855 37.4134L13.9551 30.9353C14.5731 31.3049 15.2798 31.5001 15.9999 31.5C16.72 31.4999 17.4266 31.3046 18.0446 30.9349L21.4144 37.4134C21.4619 37.5052 21.5316 37.5837 21.617 37.6418C21.7025 37.7 21.801 37.736 21.9039 37.7466C21.9258 37.7488 21.9472 37.75 21.9686 37.75C22.061 37.75 22.1523 37.7295 22.2359 37.69C22.3195 37.6505 22.3933 37.5929 22.4519 37.5214L25.3011 34.047L29.7841 33.7107C29.8873 33.703 29.9869 33.6699 30.074 33.6142C30.1612 33.5585 30.2332 33.482 30.2834 33.3916C30.3337 33.3013 30.3608 33.1998 30.3621 33.0964C30.3635 32.993 30.3392 32.8908 30.2913 32.7991L26.6592 25.8157C26.8674 25.6711 27.0949 25.5563 27.3349 25.4746C28.1298 25.2131 28.8219 24.7076 29.3128 24.0298C29.8037 23.3521 30.0682 22.5368 30.0688 21.7C30.0659 21.4314 30.0371 21.1638 29.9827 20.9008C29.9455 20.7153 29.9262 20.5267 29.9251 20.3375C29.925 19.6681 30.1708 19.022 30.6159 18.5221C31.2683 17.795 31.6279 16.8519 31.6251 15.875ZM6.64799 32.7896L3.25424 32.5352L6.23055 26.8135C6.23605 26.8243 6.24255 26.8344 6.24799 26.8453C6.3075 26.9627 6.35851 27.0842 6.40061 27.2089C6.73007 28.1975 7.43454 29.0172 8.36236 29.4915L6.64799 32.7896ZM9.91424 35.9959L7.75749 33.3658L9.56255 29.8938C10.0318 29.9703 10.5113 29.958 10.9759 29.8573C11.1577 29.8213 11.3424 29.8025 11.5277 29.8011C11.5877 29.8005 11.6439 29.8116 11.7027 29.8149C12.0871 29.8383 12.462 29.9434 12.8027 30.1231C12.8457 30.1459 12.8914 30.1616 12.9336 30.1868L12.9355 30.1882L9.91424 35.9959ZM22.0859 35.9959L19.0646 30.1875C19.2018 30.1056 19.3457 30.0354 19.4948 29.9778C19.7579 29.8811 20.0343 29.8257 20.3142 29.8135C20.3676 29.8108 20.4183 29.8005 20.4727 29.801C20.6361 29.8041 20.7989 29.8207 20.9596 29.8506C20.9817 29.8545 21.0022 29.8533 21.0245 29.8576C21.0341 29.8595 21.042 29.8596 21.0516 29.8614C21.2179 29.8931 21.3714 29.9133 21.5175 29.9263C21.5737 29.9314 21.6279 29.9329 21.6823 29.9356C21.7293 29.9376 21.7799 29.9437 21.8252 29.9437C21.8475 29.9437 21.8686 29.9388 21.8908 29.9384C22.0706 29.9383 22.2501 29.924 22.4277 29.8956L22.4384 29.8948L24.2426 33.3661L22.0859 35.9959ZM28.7454 32.5349L25.3521 32.7894L23.6431 29.5011C23.6865 29.4786 23.7252 29.4486 23.7677 29.4247C23.8307 29.3894 23.8909 29.3504 23.9517 29.3118C24.0397 29.2556 24.1283 29.2013 24.2117 29.1383C24.3398 29.0421 24.4621 28.9382 24.5777 28.8273C24.6314 28.7755 24.6793 28.7183 24.7301 28.6634C24.8107 28.5769 24.8891 28.4888 24.9617 28.3951C25.0055 28.3384 25.0464 28.2796 25.0874 28.2201C25.1601 28.1153 25.2271 28.0068 25.2897 27.8947C25.3189 27.8423 25.3493 27.7914 25.3762 27.7374C25.4636 27.5665 25.5385 27.3894 25.6003 27.2076L25.6059 27.1943C25.6533 27.0673 25.7103 26.944 25.7761 26.8255L28.7454 32.5349ZM29.686 17.6875L29.6829 17.6909C29.0335 18.4195 28.6748 19.3615 28.6751 20.3375C28.6763 20.6065 28.7031 20.8747 28.755 21.1386C28.794 21.3232 28.8153 21.5112 28.8185 21.6998C28.8179 22.2735 28.6363 22.8324 28.2997 23.297C27.9631 23.7615 27.4885 24.1081 26.9435 24.2873C26.2552 24.5154 25.6427 24.9279 25.1727 25.4801C25.1485 25.5079 25.1227 25.5338 25.0992 25.5624C25.0315 25.646 24.9705 25.7347 24.9097 25.8237C24.8801 25.8668 24.8476 25.9074 24.8198 25.9517C24.7551 26.0548 24.6985 26.1629 24.6435 26.2721C24.6272 26.3043 24.6075 26.3346 24.5921 26.3673C24.5232 26.5129 24.4634 26.6627 24.4129 26.8157C24.3707 26.9397 24.3197 27.0605 24.2604 27.1773C24.2406 27.2169 24.2183 27.2548 24.1967 27.2933C24.1561 27.3656 24.1126 27.4357 24.0661 27.5033C24.0348 27.5488 24.0036 27.5942 23.9694 27.6376C23.9291 27.6896 23.8849 27.7376 23.8411 27.7864C23.6611 27.9863 23.4524 28.1585 23.222 28.2974C23.2086 28.3054 23.1956 28.3141 23.1821 28.3219C23.0931 28.3732 23.0013 28.4194 22.9071 28.4604L22.8856 28.4694C22.7866 28.5117 22.6853 28.5482 22.5821 28.5787C22.5496 28.5889 22.518 28.5948 22.4859 28.6037C22.4113 28.6224 22.3381 28.6459 22.2614 28.6583L22.251 28.6596C22.123 28.6792 21.9937 28.6897 21.8642 28.6909C21.8225 28.6909 21.7806 28.6909 21.7366 28.6886C21.6972 28.6869 21.6576 28.6853 21.6151 28.6813C21.5061 28.6707 21.3921 28.6558 21.2637 28.6308C21.1041 28.5996 20.943 28.5774 20.7809 28.5643C20.7149 28.5589 20.6507 28.5615 20.5854 28.5593C20.4944 28.5562 20.4027 28.5499 20.3129 28.553C20.1859 28.5571 20.0615 28.5708 19.9376 28.5867C19.9121 28.59 19.8856 28.5901 19.8602 28.5939C19.4192 28.6593 18.993 28.8009 18.6004 29.0122L18.5931 29.0157C18.4732 29.081 18.3567 29.1525 18.2441 29.2298C18.2322 29.2378 18.2196 29.2444 18.2078 29.2525C18.1042 29.3244 18.0049 29.4041 17.9071 29.4863C17.8893 29.5013 17.87 29.5136 17.8524 29.5288L17.8499 29.5318C17.8379 29.5423 17.8249 29.5506 17.8127 29.5615C17.3132 30.0054 16.6682 30.2506 16 30.2506C15.3318 30.2506 14.6867 30.0054 14.1872 29.5615C14.1762 29.5517 14.1653 29.5428 14.1543 29.5337L14.136 29.5191C14.0747 29.4663 14.0091 29.4207 13.9454 29.3719C13.8909 29.3301 13.8383 29.2848 13.7821 29.2459C13.7372 29.2146 13.6894 29.1896 13.6436 29.1608C13.5623 29.1095 13.4823 29.0563 13.3981 29.0112C13.3777 29.0003 13.3561 28.9924 13.3356 28.9819C12.5346 28.5726 11.6179 28.4488 10.737 28.631C10.2972 28.7377 9.83637 28.7184 9.40705 28.5754C8.98416 28.4515 8.59768 28.2267 8.28076 27.9205C7.96385 27.6143 7.72597 27.2357 7.58755 26.8173C7.38774 26.2033 7.03754 25.649 6.5688 25.2048L6.56343 25.2001L6.5578 25.1939L6.5543 25.1918C6.13237 24.7794 5.62071 24.4702 5.05936 24.2884C4.51372 24.1095 4.03844 23.763 3.70123 23.2983C3.36401 22.8335 3.18206 22.2742 3.1813 21.7C3.18453 21.5107 3.206 21.3221 3.24543 21.1369C3.29705 20.8736 3.32371 20.6059 3.32505 20.3375C3.32508 19.36 2.96529 18.4167 2.3143 17.6875C1.8699 17.1875 1.62467 16.5417 1.62524 15.8728C1.6258 15.2039 1.87212 14.5585 2.31736 14.0593C2.96671 13.3306 3.32537 12.3885 3.32505 11.4125C3.3238 11.1435 3.29704 10.8753 3.24511 10.6114C3.20597 10.4267 3.1846 10.2387 3.1813 10.05C3.18192 9.47631 3.36346 8.91741 3.7001 8.45285C4.03674 7.9883 4.51131 7.64174 5.0563 7.46251C5.64681 7.26822 6.18348 6.93805 6.62312 6.49854C7.06275 6.05903 7.39309 5.52246 7.58755 4.93201C7.686 4.62992 7.83752 4.34779 8.03499 4.09888C8.29059 3.77563 8.61568 3.51407 8.98615 3.33358C9.35662 3.15309 9.76296 3.0583 10.1751 3.05626C10.3638 3.05952 10.5518 3.08067 10.7366 3.11945C11.3287 3.24506 11.9418 3.23156 12.5278 3.08C13.1138 2.92843 13.6567 2.64295 14.1136 2.24601C14.1396 2.22882 14.1643 2.20979 14.1876 2.18907C14.6876 1.74472 15.3334 1.4995 16.0024 1.50001C16.6713 1.50052 17.3168 1.74671 17.8161 2.19182C18.2797 2.60281 18.8323 2.90053 19.4305 3.06152C20.0287 3.22252 20.6562 3.24239 21.2634 3.11957C21.4482 3.08081 21.6362 3.05961 21.8251 3.05626C22.2374 3.05841 22.644 3.15335 23.0146 3.33403C23.3853 3.51472 23.7105 3.77651 23.9662 4.10001C24.1631 4.34872 24.3142 4.63043 24.4126 4.93201C24.6067 5.52206 24.9365 6.05834 25.3756 6.49773C25.8147 6.93713 26.3507 7.26738 26.9406 7.46195C27.4862 7.64076 27.9615 7.98719 28.2987 8.45189C28.636 8.91658 28.818 9.47584 28.8188 10.05C28.8156 10.2393 28.7941 10.4279 28.7547 10.6131C28.7031 10.8765 28.6764 11.1441 28.6751 11.4125C28.675 12.39 29.0348 13.3333 29.6858 14.0625C30.1297 14.5619 30.3749 15.2068 30.3749 15.875C30.3749 16.5432 30.1299 17.1881 29.686 17.6875Z" fill="white"/>
<path d="M22.3801 12.9792L18.7961 12.2782L17.0218 9.08639C16.9206 8.90409 16.7725 8.75218 16.5928 8.64641C16.4132 8.54064 16.2084 8.48486 15.9999 8.48486C15.7914 8.48486 15.5867 8.54064 15.4071 8.64641C15.2274 8.75218 15.0793 8.90409 14.9781 9.08639L13.2038 12.2782L9.62007 12.9792C9.41554 13.0193 9.22544 13.1133 9.06944 13.2515C8.91344 13.3897 8.79721 13.5671 8.73279 13.7654C8.66838 13.9636 8.6581 14.1754 8.70304 14.3789C8.74798 14.5825 8.84649 14.7703 8.98839 14.9229L11.4755 17.5963L11.0349 21.2221C11.0099 21.429 11.0407 21.6389 11.124 21.8299C11.2073 22.021 11.3402 22.1863 11.5089 22.3087C11.6775 22.4312 11.8759 22.5064 12.0833 22.5264C12.2908 22.5465 12.4999 22.5108 12.6889 22.4229L16.0001 20.8839L19.3118 22.4232C19.5008 22.511 19.7099 22.5467 19.9173 22.5265C20.1248 22.5064 20.3231 22.4312 20.4917 22.3087C20.6603 22.1862 20.7931 22.0209 20.8764 21.8298C20.9596 21.6387 20.9903 21.4289 20.9653 21.222L20.5246 17.5965L23.0121 14.9229C23.1541 14.7702 23.2526 14.5824 23.2976 14.3789C23.3425 14.1753 23.3323 13.9635 23.2678 13.7652C23.2034 13.567 23.0872 13.3896 22.9311 13.2514C22.7751 13.1132 22.5846 13.0192 22.3801 12.9792ZM19.5834 16.7729C19.4674 16.8975 19.38 17.046 19.3274 17.208C19.2747 17.3699 19.2582 17.5414 19.2789 17.7104L19.7068 21.2285L16.4926 19.7344C16.3382 19.6626 16.17 19.6254 15.9997 19.6254C15.8294 19.6255 15.6612 19.6628 15.5069 19.7347L12.2934 21.2284L12.7206 17.711C12.7416 17.5419 12.7253 17.3703 12.6728 17.2082C12.6203 17.0461 12.5329 16.8975 12.4167 16.7729L10.0028 14.1783L13.4813 13.4977C13.6484 13.4651 13.8064 13.3964 13.9441 13.2963C14.0818 13.1961 14.196 13.0671 14.2784 12.9181L16.0001 9.82095L17.7219 12.9184C17.8044 13.0673 17.9186 13.1963 18.0563 13.2964C18.194 13.3964 18.3519 13.4652 18.519 13.4977L21.9974 14.1783L19.5834 16.7729Z" fill="white"/>
<path d="M16 4.36768C13.7822 4.3677 11.6143 5.02537 9.77026 6.25752C7.92626 7.48967 6.48905 9.24096 5.64037 11.2899C4.79169 13.3389 4.56966 15.5935 5.00236 17.7687C5.43505 19.9438 6.50304 21.9418 8.07127 23.51C9.63949 25.0782 11.6375 26.1461 13.8127 26.5788C15.9879 27.0114 18.2425 26.7893 20.2914 25.9406C22.3403 25.0918 24.0916 23.6546 25.3237 21.8105C26.5558 19.9665 27.2134 17.7985 27.2134 15.5807C27.2099 12.6079 26.0274 9.75772 23.9252 7.6556C21.823 5.55347 18.9729 4.37103 16 4.36768ZM16 25.5441C14.0295 25.5441 12.1032 24.9597 10.4648 23.8649C8.82633 22.7702 7.54933 21.2141 6.79525 19.3936C6.04117 17.573 5.84388 15.5698 6.22832 13.6371C6.61276 11.7044 7.56166 9.92916 8.95504 8.53578C10.3484 7.1424 12.1237 6.1935 14.0564 5.80906C15.989 5.42462 17.9923 5.62192 19.8128 6.376C21.6334 7.13008 23.1894 8.40707 24.2842 10.0455C25.379 11.6839 25.9633 13.6102 25.9634 15.5807C25.9603 18.2222 24.9096 20.7547 23.0418 22.6225C21.1739 24.4903 18.6415 25.541 16 25.5441Z" fill="white"/>
</svg>
