<svg xmlns="http://www.w3.org/2000/svg" xmlns:xlink="http://www.w3.org/1999/xlink" version="1.1" x="0px" y="0px" viewBox="0 -13 100 125" style="enable-background:new 0 0 100 100;" xml:space="preserve" transform="scale(1.3)">
  <path d="M79.2,71l3.5,2l0.1-0.2c4.9-6.8,7.5-14.9,7.5-23.4c0.1-10.9-4-21.1-11.6-28.7C71.1,13,61,8.8,50.1,8.8  C27.9,8.8,9.7,26.9,9.7,49.2s18.1,40.4,40.4,40.4c3.9,0,7.6-0.5,11.1-1.6l0.2-0.1l-0.8-4l-0.3,0.1c-3.4,1-6.9,1.6-10.4,1.6  c-20,0-36.3-16.3-36.3-36.3C13.7,29.3,30,13,50,13s36.3,16.3,36.3,36.3c0,7.7-2.4,15.1-7,21.5L79.2,71z"/>
  <path d="M84.3,15.5C75.2,6.4,63,1.3,50.1,1.3c-4.5,0-8.8,0.6-12.9,1.8L37,3.2l0.7,3.7L38,6.8c4-1.1,8.1-1.7,12.1-1.7  c24.5,0,44.5,19.9,44.5,44.5S74.6,94,50.1,94C25.6,93.9,5.7,74,5.7,49.5c0-9.3,2.8-18.1,8.2-25.7l0.2-0.2l-3.3-1.9l-0.1,0.2  C4.9,30,1.9,39.5,1.9,49.6c0,26.5,21.6,48.1,48.1,48.1c26.6,0,48.3-21.6,48.3-48.1C98.3,36.7,93.4,24.7,84.3,15.5z"/>
  <path d="M76.5,79.1L65.4,28.1l-0.1-0.5L65,27.3c-0.2-0.2-0.7-0.5-1.7-0.8c-2.6-0.6-7.8-0.1-18.3,5.8l-0.1,0.1  c-0.1,0.1-13.7,9.4-21.8,6.9l-3.4-1.1L31,63l0.2,0.3c0.1,0.2,1.2,1.5,3.6,2.1c4.1,1,9.4-0.7,15.8-5c6.6-4.4,11.4-4.5,14.2-3.9  c2.4,0.6,3.7,1.8,3.7,1.8l0.4,0.4l4.5,20.9L76.5,79.1z M57.7,41.9l-1.9-6.1l-8,2.5l-1-3.3c3-1.7,5.6-2.9,7.6-3.7l1.6,5.1l7.3-2.3  l1.1,5.7L57.7,41.9z M35.5,56.1l-1.7-5.5l8-2.5l1.7,5.5L35.5,56.1z M39.7,41.3l-8,2.5l-0.5-1.6c2.8-0.7,5.5-1.8,7.9-2.9L39.7,41.3z   M31.7,44.5l1.8,5.8l-4.2,1.3L26.8,46L31.7,44.5z M41.6,47.2l-1.7-5.5l7.9-2.5l1.7,5.5L41.6,47.2z M33.8,61.5l-1.6-3.4l3.3-1  l1.7,5.4c-0.7,0-1.3-0.1-1.7-0.2C34.5,62.1,34,61.7,33.8,61.5z M48.8,57.8c-1.2,0.8-2.3,1.5-3.4,2l-1.8-5.9l7.9-2.5l1.3,4  C51.6,56.1,50.2,56.9,48.8,57.8z M65.5,53.5c-1.2-0.3-2.6-0.4-4.3-0.3l-1.6-5.1l-8,2.5L49.9,45l8-2.5l1.9,6.1l6.1-1.9l1.5,7.3  C66.8,53.8,66.2,53.6,65.5,53.5z"/>
</svg>